<mxfile host="app.diagrams.net" modified="2024-01-08T21:51:56.333Z" agent="Mozilla/5.0 (Windows NT 10.0; Win64; x64) AppleWebKit/537.36 (KHTML, like Gecko) Chrome/120.0.0.0 Safari/537.36" etag="8TyacSRYx23SrbrgWgJl" version="22.1.17" type="device">
  <diagram name="Page-1" id="0WY_VE9qg0hsNKWu09CC">
    <mxGraphModel dx="3839" dy="1126" grid="1" gridSize="10" guides="1" tooltips="1" connect="1" arrows="1" fold="1" page="1" pageScale="1" pageWidth="827" pageHeight="1169" math="0" shadow="0">
      <root>
        <mxCell id="0" />
        <mxCell id="1" parent="0" />
        <mxCell id="eaNRV4o_DQUxt2erb4ce-1" value="" style="group" parent="1" vertex="1" connectable="0">
          <mxGeometry x="-1300" y="10" width="1090" height="910" as="geometry" />
        </mxCell>
        <mxCell id="eaNRV4o_DQUxt2erb4ce-2" value="" style="rounded=0;whiteSpace=wrap;html=1;" parent="eaNRV4o_DQUxt2erb4ce-1" vertex="1">
          <mxGeometry width="1090" height="910" as="geometry" />
        </mxCell>
        <mxCell id="eaNRV4o_DQUxt2erb4ce-7" value="RootKeystore" style="rounded=1;whiteSpace=wrap;html=1;fillColor=#f8cecc;strokeColor=#b85450;" parent="eaNRV4o_DQUxt2erb4ce-1" vertex="1">
          <mxGeometry x="367" y="105" width="120" height="60" as="geometry" />
        </mxCell>
        <mxCell id="eaNRV4o_DQUxt2erb4ce-8" value="ClientKeystore" style="rounded=1;whiteSpace=wrap;html=1;fillColor=#dae8fc;strokeColor=#6c8ebf;" parent="eaNRV4o_DQUxt2erb4ce-1" vertex="1">
          <mxGeometry x="168" y="755" width="102" height="60" as="geometry" />
        </mxCell>
        <mxCell id="eaNRV4o_DQUxt2erb4ce-9" value="Root&lt;br&gt;Keystore.p12&lt;br&gt;" style="shape=note;whiteSpace=wrap;html=1;backgroundOutline=1;darkOpacity=0.05;fillColor=#f8cecc;strokeColor=#b85450;" parent="eaNRV4o_DQUxt2erb4ce-1" vertex="1">
          <mxGeometry x="190" y="77" width="80" height="100" as="geometry" />
        </mxCell>
        <mxCell id="eaNRV4o_DQUxt2erb4ce-10" value="Client&lt;br&gt;Keystore.p12" style="shape=note;whiteSpace=wrap;html=1;backgroundOutline=1;darkOpacity=0.05;fillColor=#dae8fc;strokeColor=#6c8ebf;" parent="eaNRV4o_DQUxt2erb4ce-1" vertex="1">
          <mxGeometry x="20" y="730" width="80" height="100" as="geometry" />
        </mxCell>
        <mxCell id="eaNRV4o_DQUxt2erb4ce-11" value="" style="shape=flexArrow;endArrow=classic;html=1;rounded=0;" parent="eaNRV4o_DQUxt2erb4ce-1" edge="1">
          <mxGeometry width="50" height="50" relative="1" as="geometry">
            <mxPoint x="290" y="136.5" as="sourcePoint" />
            <mxPoint x="350" y="136" as="targetPoint" />
          </mxGeometry>
        </mxCell>
        <mxCell id="eaNRV4o_DQUxt2erb4ce-12" value="" style="shape=flexArrow;endArrow=classic;html=1;rounded=0;" parent="eaNRV4o_DQUxt2erb4ce-1" edge="1">
          <mxGeometry width="50" height="50" relative="1" as="geometry">
            <mxPoint x="342" y="785" as="sourcePoint" />
            <mxPoint x="276" y="785" as="targetPoint" />
          </mxGeometry>
        </mxCell>
        <mxCell id="eaNRV4o_DQUxt2erb4ce-18" value="" style="shape=flexArrow;endArrow=classic;html=1;rounded=0;" parent="eaNRV4o_DQUxt2erb4ce-1" edge="1">
          <mxGeometry width="50" height="50" relative="1" as="geometry">
            <mxPoint x="500" y="136" as="sourcePoint" />
            <mxPoint x="602" y="136" as="targetPoint" />
          </mxGeometry>
        </mxCell>
        <mxCell id="eaNRV4o_DQUxt2erb4ce-19" value="&lt;font style=&quot;font-size: 28px;&quot;&gt;Generation Key Pair Client&lt;/font&gt;" style="text;html=1;strokeColor=none;fillColor=none;align=center;verticalAlign=middle;whiteSpace=wrap;rounded=0;fontStyle=1" parent="eaNRV4o_DQUxt2erb4ce-1" vertex="1">
          <mxGeometry x="378.12" y="20" width="381.88" height="30" as="geometry" />
        </mxCell>
        <mxCell id="eaNRV4o_DQUxt2erb4ce-20" value="Get SartDate + EndDate" style="shape=parallelogram;perimeter=parallelogramPerimeter;whiteSpace=wrap;html=1;fixedSize=1;" parent="eaNRV4o_DQUxt2erb4ce-1" vertex="1">
          <mxGeometry x="594.5" y="371" width="360" height="39" as="geometry" />
        </mxCell>
        <mxCell id="eaNRV4o_DQUxt2erb4ce-21" value="&amp;nbsp;&lt;br&gt;&amp;nbsp; &amp;nbsp; &amp;nbsp; &amp;nbsp; &amp;nbsp; &amp;nbsp; &amp;nbsp; &amp;nbsp; &amp;nbsp; &amp;nbsp; &amp;nbsp; &amp;nbsp; &amp;nbsp; &amp;nbsp; &amp;nbsp; &amp;nbsp; &amp;nbsp; &amp;nbsp; &amp;nbsp; &amp;nbsp; &amp;nbsp; &amp;nbsp; &amp;nbsp; &amp;nbsp; &amp;nbsp; &amp;nbsp; &amp;nbsp; &amp;nbsp; &amp;nbsp; =&amp;gt;&amp;nbsp; &amp;nbsp;Preparation Creation&lt;br&gt;&amp;nbsp; &amp;nbsp; &amp;nbsp; &amp;nbsp; &amp;nbsp; &amp;nbsp; &amp;nbsp; &amp;nbsp; &amp;nbsp; &amp;nbsp; &amp;nbsp; &amp;nbsp; &amp;nbsp; &amp;nbsp; &amp;nbsp; &amp;nbsp; &amp;nbsp; &amp;nbsp; &amp;nbsp; &amp;nbsp; &amp;nbsp;Certif&lt;br&gt;&lt;br&gt;Params:(RootCertX500, randomIdCert, StartDate, EndDate, CertNameX500, Client KeyPair)" style="shape=parallelogram;perimeter=parallelogramPerimeter;whiteSpace=wrap;html=1;fixedSize=1;" parent="eaNRV4o_DQUxt2erb4ce-1" vertex="1">
          <mxGeometry x="594.5" y="430" width="360" height="120" as="geometry" />
        </mxCell>
        <mxCell id="eaNRV4o_DQUxt2erb4ce-22" value="CryptoUtils.CreateKeyPair()" style="shape=parallelogram;perimeter=parallelogramPerimeter;whiteSpace=wrap;html=1;fixedSize=1;" parent="eaNRV4o_DQUxt2erb4ce-1" vertex="1">
          <mxGeometry x="594.5" y="235" width="360" height="60" as="geometry" />
        </mxCell>
        <mxCell id="eaNRV4o_DQUxt2erb4ce-26" value="" style="endArrow=classic;html=1;rounded=0;exitX=0.5;exitY=1;exitDx=0;exitDy=0;entryX=0.5;entryY=0;entryDx=0;entryDy=0;" parent="eaNRV4o_DQUxt2erb4ce-1" source="eaNRV4o_DQUxt2erb4ce-22" target="eaNRV4o_DQUxt2erb4ce-20" edge="1">
          <mxGeometry width="50" height="50" relative="1" as="geometry">
            <mxPoint x="640" y="240" as="sourcePoint" />
            <mxPoint x="690" y="190" as="targetPoint" />
          </mxGeometry>
        </mxCell>
        <mxCell id="eaNRV4o_DQUxt2erb4ce-27" value="" style="endArrow=classic;html=1;rounded=0;exitX=0.5;exitY=1;exitDx=0;exitDy=0;entryX=0.5;entryY=0;entryDx=0;entryDy=0;" parent="eaNRV4o_DQUxt2erb4ce-1" source="eaNRV4o_DQUxt2erb4ce-20" target="eaNRV4o_DQUxt2erb4ce-21" edge="1">
          <mxGeometry width="50" height="50" relative="1" as="geometry">
            <mxPoint x="1190" y="540" as="sourcePoint" />
            <mxPoint x="1240" y="490" as="targetPoint" />
          </mxGeometry>
        </mxCell>
        <mxCell id="eaNRV4o_DQUxt2erb4ce-28" value="add Extensions:&lt;br&gt;&lt;ul&gt;&lt;li style=&quot;text-align: left;&quot;&gt;basicConstraints()&lt;/li&gt;&lt;li style=&quot;text-align: left;&quot;&gt;authorityKeyIdentifier (PublicKeyRoot)&lt;/li&gt;&lt;/ul&gt;" style="shape=parallelogram;perimeter=parallelogramPerimeter;whiteSpace=wrap;html=1;fixedSize=1;" parent="eaNRV4o_DQUxt2erb4ce-1" vertex="1">
          <mxGeometry x="594.5" y="570" width="360" height="80" as="geometry" />
        </mxCell>
        <mxCell id="eaNRV4o_DQUxt2erb4ce-29" value="" style="group" parent="eaNRV4o_DQUxt2erb4ce-1" vertex="1" connectable="0">
          <mxGeometry x="960" y="560" width="110" height="90" as="geometry" />
        </mxCell>
        <mxCell id="eaNRV4o_DQUxt2erb4ce-30" value="" style="rounded=1;whiteSpace=wrap;html=1;fillColor=#e1d5e7;strokeColor=#9673a6;" parent="eaNRV4o_DQUxt2erb4ce-29" vertex="1">
          <mxGeometry width="110" height="90" as="geometry" />
        </mxCell>
        <mxCell id="eaNRV4o_DQUxt2erb4ce-31" value="Root&lt;br&gt;PublicKey" style="rounded=1;whiteSpace=wrap;html=1;fillColor=#f8cecc;strokeColor=#b85450;" parent="eaNRV4o_DQUxt2erb4ce-29" vertex="1">
          <mxGeometry x="25" y="38" width="80" height="45" as="geometry" />
        </mxCell>
        <mxCell id="eaNRV4o_DQUxt2erb4ce-32" value="Root Certificate" style="text;html=1;strokeColor=none;fillColor=none;align=center;verticalAlign=middle;whiteSpace=wrap;rounded=0;" parent="eaNRV4o_DQUxt2erb4ce-29" vertex="1">
          <mxGeometry x="10" y="5" width="90" height="30" as="geometry" />
        </mxCell>
        <mxCell id="eaNRV4o_DQUxt2erb4ce-33" value="" style="endArrow=classic;html=1;rounded=0;" parent="eaNRV4o_DQUxt2erb4ce-1" edge="1">
          <mxGeometry width="50" height="50" relative="1" as="geometry">
            <mxPoint x="988" y="623" as="sourcePoint" />
            <mxPoint x="904" y="625" as="targetPoint" />
          </mxGeometry>
        </mxCell>
        <mxCell id="eaNRV4o_DQUxt2erb4ce-34" value="" style="endArrow=classic;html=1;rounded=0;exitX=0.5;exitY=1;exitDx=0;exitDy=0;entryX=0.5;entryY=0;entryDx=0;entryDy=0;" parent="eaNRV4o_DQUxt2erb4ce-1" source="eaNRV4o_DQUxt2erb4ce-21" target="eaNRV4o_DQUxt2erb4ce-28" edge="1">
          <mxGeometry width="50" height="50" relative="1" as="geometry">
            <mxPoint x="400" y="600" as="sourcePoint" />
            <mxPoint x="450" y="550" as="targetPoint" />
          </mxGeometry>
        </mxCell>
        <mxCell id="eaNRV4o_DQUxt2erb4ce-35" value="X509v3CertificateBuilder" style="rounded=1;whiteSpace=wrap;html=1;fillColor=#fff2cc;strokeColor=#d6b656;" parent="eaNRV4o_DQUxt2erb4ce-1" vertex="1">
          <mxGeometry x="623" y="444" width="168.25" height="50" as="geometry" />
        </mxCell>
        <mxCell id="eaNRV4o_DQUxt2erb4ce-36" value="" style="group" parent="eaNRV4o_DQUxt2erb4ce-1" vertex="1" connectable="0">
          <mxGeometry x="542.25" y="680" width="464.5" height="200" as="geometry" />
        </mxCell>
        <mxCell id="eaNRV4o_DQUxt2erb4ce-37" value="Sign Certificate:&lt;br&gt;&lt;br&gt;&lt;br&gt;&lt;br&gt;&lt;br&gt;&lt;br&gt;&lt;br&gt;&lt;br&gt;&lt;br&gt;&lt;br&gt;&lt;br&gt;&lt;br&gt;" style="shape=parallelogram;perimeter=parallelogramPerimeter;whiteSpace=wrap;html=1;fixedSize=1;" parent="eaNRV4o_DQUxt2erb4ce-36" vertex="1">
          <mxGeometry width="464.5" height="200" as="geometry" />
        </mxCell>
        <mxCell id="eaNRV4o_DQUxt2erb4ce-38" value="X509CertificateHolder" style="rounded=1;whiteSpace=wrap;html=1;fillColor=#fff2cc;strokeColor=#d6b656;" parent="eaNRV4o_DQUxt2erb4ce-36" vertex="1">
          <mxGeometry x="17.75" y="50" width="160" height="60" as="geometry" />
        </mxCell>
        <mxCell id="eaNRV4o_DQUxt2erb4ce-39" value="JcaContentSignerBuilder" style="rounded=1;whiteSpace=wrap;html=1;fillColor=#f5f5f5;fontColor=#333333;strokeColor=#666666;" parent="eaNRV4o_DQUxt2erb4ce-36" vertex="1">
          <mxGeometry x="210.75" y="120" width="150" height="58" as="geometry" />
        </mxCell>
        <mxCell id="eaNRV4o_DQUxt2erb4ce-40" value="X509v3CertificateBuilder" style="rounded=1;whiteSpace=wrap;html=1;fillColor=#f5f5f5;fontColor=#333333;strokeColor=#666666;" parent="eaNRV4o_DQUxt2erb4ce-36" vertex="1">
          <mxGeometry x="210.75" y="50" width="172.5" height="58" as="geometry" />
        </mxCell>
        <mxCell id="eaNRV4o_DQUxt2erb4ce-41" value="Root&lt;br&gt;PrivateKey" style="rounded=1;whiteSpace=wrap;html=1;fillColor=#f8cecc;strokeColor=#b85450;" parent="eaNRV4o_DQUxt2erb4ce-36" vertex="1">
          <mxGeometry x="333.25" y="90" width="79" height="46" as="geometry" />
        </mxCell>
        <mxCell id="eaNRV4o_DQUxt2erb4ce-42" value="" style="shape=image;html=1;verticalAlign=top;verticalLabelPosition=bottom;labelBackgroundColor=#ffffff;imageAspect=0;aspect=fixed;image=https://cdn1.iconfinder.com/data/icons/seo-and-web-development-6/32/development_setting_gear_cogwheel-71-128.png" parent="eaNRV4o_DQUxt2erb4ce-36" vertex="1">
          <mxGeometry x="297.75" y="92.5" width="43.5" height="43.5" as="geometry" />
        </mxCell>
        <mxCell id="eaNRV4o_DQUxt2erb4ce-43" value="" style="endArrow=classic;html=1;rounded=0;exitX=0.5;exitY=1;exitDx=0;exitDy=0;" parent="eaNRV4o_DQUxt2erb4ce-1" source="eaNRV4o_DQUxt2erb4ce-28" target="eaNRV4o_DQUxt2erb4ce-37" edge="1">
          <mxGeometry width="50" height="50" relative="1" as="geometry">
            <mxPoint x="1120" y="730" as="sourcePoint" />
            <mxPoint x="1170" y="680" as="targetPoint" />
          </mxGeometry>
        </mxCell>
        <mxCell id="eaNRV4o_DQUxt2erb4ce-44" value="" style="shape=flexArrow;endArrow=classic;html=1;rounded=0;" parent="eaNRV4o_DQUxt2erb4ce-1" edge="1">
          <mxGeometry width="50" height="50" relative="1" as="geometry">
            <mxPoint x="542" y="782" as="sourcePoint" />
            <mxPoint x="487" y="782" as="targetPoint" />
          </mxGeometry>
        </mxCell>
        <mxCell id="eaNRV4o_DQUxt2erb4ce-45" value="" style="shape=flexArrow;endArrow=classic;html=1;rounded=0;" parent="eaNRV4o_DQUxt2erb4ce-1" edge="1">
          <mxGeometry width="50" height="50" relative="1" as="geometry">
            <mxPoint x="160" y="784.6600000000001" as="sourcePoint" />
            <mxPoint x="105" y="784" as="targetPoint" />
          </mxGeometry>
        </mxCell>
        <mxCell id="eaNRV4o_DQUxt2erb4ce-47" value="SetKeyEntry()" style="text;html=1;strokeColor=none;fillColor=none;align=center;verticalAlign=middle;whiteSpace=wrap;rounded=0;" parent="eaNRV4o_DQUxt2erb4ce-1" vertex="1">
          <mxGeometry x="269" y="741" width="82" height="30" as="geometry" />
        </mxCell>
        <mxCell id="eaNRV4o_DQUxt2erb4ce-48" value="getKeyEntry()" style="text;html=1;strokeColor=none;fillColor=none;align=center;verticalAlign=middle;whiteSpace=wrap;rounded=0;" parent="eaNRV4o_DQUxt2erb4ce-1" vertex="1">
          <mxGeometry x="510" y="98" width="60" height="30" as="geometry" />
        </mxCell>
        <mxCell id="eaNRV4o_DQUxt2erb4ce-49" value=".load()" style="text;html=1;strokeColor=none;fillColor=none;align=center;verticalAlign=middle;whiteSpace=wrap;rounded=0;" parent="eaNRV4o_DQUxt2erb4ce-1" vertex="1">
          <mxGeometry x="290" y="90" width="60" height="30" as="geometry" />
        </mxCell>
        <mxCell id="eaNRV4o_DQUxt2erb4ce-50" value=".store()" style="text;html=1;strokeColor=none;fillColor=none;align=center;verticalAlign=middle;whiteSpace=wrap;rounded=0;" parent="eaNRV4o_DQUxt2erb4ce-1" vertex="1">
          <mxGeometry x="110" y="740" width="60" height="30" as="geometry" />
        </mxCell>
        <mxCell id="21a0jfgYQ8PTnoKuGxFv-1" value="" style="group" vertex="1" connectable="0" parent="eaNRV4o_DQUxt2erb4ce-1">
          <mxGeometry x="870" y="200.25" width="115" height="129.5" as="geometry" />
        </mxCell>
        <mxCell id="eaNRV4o_DQUxt2erb4ce-52" value="" style="rounded=0;whiteSpace=wrap;html=1;" parent="21a0jfgYQ8PTnoKuGxFv-1" vertex="1">
          <mxGeometry width="115" height="129.5" as="geometry" />
        </mxCell>
        <mxCell id="eaNRV4o_DQUxt2erb4ce-24" value="Client&lt;br&gt;PublicKey" style="rounded=1;whiteSpace=wrap;html=1;fillColor=#dae8fc;strokeColor=#6c8ebf;" parent="21a0jfgYQ8PTnoKuGxFv-1" vertex="1">
          <mxGeometry x="10" y="19.5" width="80" height="45" as="geometry" />
        </mxCell>
        <mxCell id="eaNRV4o_DQUxt2erb4ce-23" value="Client&lt;br&gt;PrivateKey" style="rounded=1;whiteSpace=wrap;html=1;fillColor=#dae8fc;strokeColor=#6c8ebf;" parent="21a0jfgYQ8PTnoKuGxFv-1" vertex="1">
          <mxGeometry x="11" y="69.5" width="79" height="46" as="geometry" />
        </mxCell>
        <mxCell id="eaNRV4o_DQUxt2erb4ce-25" value="" style="shape=image;html=1;verticalAlign=top;verticalLabelPosition=bottom;labelBackgroundColor=#ffffff;imageAspect=0;aspect=fixed;image=https://cdn1.iconfinder.com/data/icons/seo-and-web-development-6/32/development_setting_gear_cogwheel-71-128.png" parent="21a0jfgYQ8PTnoKuGxFv-1" vertex="1">
          <mxGeometry x="70" y="42.75" width="43.5" height="43.5" as="geometry" />
        </mxCell>
        <mxCell id="21a0jfgYQ8PTnoKuGxFv-2" value="" style="group" vertex="1" connectable="0" parent="eaNRV4o_DQUxt2erb4ce-1">
          <mxGeometry x="640" y="90" width="220" height="120" as="geometry" />
        </mxCell>
        <mxCell id="eaNRV4o_DQUxt2erb4ce-51" value="" style="rounded=0;whiteSpace=wrap;html=0;" parent="21a0jfgYQ8PTnoKuGxFv-2" vertex="1">
          <mxGeometry width="220" height="112.5" as="geometry" />
        </mxCell>
        <mxCell id="eaNRV4o_DQUxt2erb4ce-14" value="" style="group" parent="21a0jfgYQ8PTnoKuGxFv-2" vertex="1" connectable="0">
          <mxGeometry x="99" y="12.5" width="120.5" height="107.5" as="geometry" />
        </mxCell>
        <mxCell id="eaNRV4o_DQUxt2erb4ce-15" value="" style="rounded=1;whiteSpace=wrap;html=1;fillColor=#e1d5e7;strokeColor=#9673a6;" parent="eaNRV4o_DQUxt2erb4ce-14" vertex="1">
          <mxGeometry width="110" height="90" as="geometry" />
        </mxCell>
        <mxCell id="eaNRV4o_DQUxt2erb4ce-16" value="Root&lt;br&gt;PublicKey" style="rounded=1;whiteSpace=wrap;html=1;fillColor=#f8cecc;strokeColor=#b85450;" parent="eaNRV4o_DQUxt2erb4ce-14" vertex="1">
          <mxGeometry x="25" y="38" width="80" height="45" as="geometry" />
        </mxCell>
        <mxCell id="eaNRV4o_DQUxt2erb4ce-17" value="Root Certificate" style="text;html=1;strokeColor=none;fillColor=none;align=center;verticalAlign=middle;whiteSpace=wrap;rounded=0;" parent="eaNRV4o_DQUxt2erb4ce-14" vertex="1">
          <mxGeometry x="10" y="5" width="90" height="30" as="geometry" />
        </mxCell>
        <mxCell id="eaNRV4o_DQUxt2erb4ce-13" value="Root&lt;br&gt;PrivateKey" style="rounded=1;whiteSpace=wrap;html=1;fillColor=#f8cecc;strokeColor=#b85450;" parent="eaNRV4o_DQUxt2erb4ce-14" vertex="1">
          <mxGeometry x="-90" width="79" height="46" as="geometry" />
        </mxCell>
        <mxCell id="21a0jfgYQ8PTnoKuGxFv-5" value="" style="group" vertex="1" connectable="0" parent="eaNRV4o_DQUxt2erb4ce-1">
          <mxGeometry x="350" y="710" width="130" height="170" as="geometry" />
        </mxCell>
        <mxCell id="eaNRV4o_DQUxt2erb4ce-53" value="" style="rounded=0;whiteSpace=wrap;html=1;" parent="21a0jfgYQ8PTnoKuGxFv-5" vertex="1">
          <mxGeometry width="130" height="170" as="geometry" />
        </mxCell>
        <mxCell id="eaNRV4o_DQUxt2erb4ce-3" value="" style="group" parent="21a0jfgYQ8PTnoKuGxFv-5" vertex="1" connectable="0">
          <mxGeometry x="10" y="65" width="110" height="90" as="geometry" />
        </mxCell>
        <mxCell id="eaNRV4o_DQUxt2erb4ce-4" value="" style="rounded=1;whiteSpace=wrap;html=1;fillColor=#e1d5e7;strokeColor=#9673a6;" parent="eaNRV4o_DQUxt2erb4ce-3" vertex="1">
          <mxGeometry width="110" height="90" as="geometry" />
        </mxCell>
        <mxCell id="eaNRV4o_DQUxt2erb4ce-5" value="Client&lt;br&gt;PublicKey" style="rounded=1;whiteSpace=wrap;html=1;fillColor=#dae8fc;strokeColor=#6c8ebf;" parent="eaNRV4o_DQUxt2erb4ce-3" vertex="1">
          <mxGeometry x="25" y="38" width="80" height="45" as="geometry" />
        </mxCell>
        <mxCell id="eaNRV4o_DQUxt2erb4ce-6" value="Client Certificate" style="text;html=1;strokeColor=none;fillColor=none;align=center;verticalAlign=middle;whiteSpace=wrap;rounded=0;" parent="eaNRV4o_DQUxt2erb4ce-3" vertex="1">
          <mxGeometry x="2" y="2" width="100" height="30" as="geometry" />
        </mxCell>
        <mxCell id="eaNRV4o_DQUxt2erb4ce-46" value="Client&lt;br&gt;PublicKey" style="rounded=1;whiteSpace=wrap;html=1;fillColor=#dae8fc;strokeColor=#6c8ebf;" parent="21a0jfgYQ8PTnoKuGxFv-5" vertex="1">
          <mxGeometry x="10" y="10" width="80" height="45" as="geometry" />
        </mxCell>
      </root>
    </mxGraphModel>
  </diagram>
</mxfile>
